<?xml version="1.0" encoding="UTF-8"?>
<svg width="30px" height="25px" viewBox="0 0 30 25" version="1.1" xmlns="http://www.w3.org/2000/svg" xmlns:xlink="http://www.w3.org/1999/xlink">
    <!-- Generator: Sketch 55 (78076) - https://sketchapp.com -->
    <title>twitter</title>
    <desc>Created with Sketch.</desc>
    <g id="style2" stroke="none" stroke-width="1" fill="none" fill-rule="evenodd">
        <g id="s2v1c3" transform="translate(-1133.000000, -4952.000000)" fill="#FFFFFF" fill-rule="nonzero">
            <g id="footers" transform="translate(0.000000, 4742.000000)">
                <g id="🔸Group-3" transform="translate(213.000000, 209.000000)">
                    <g id="Group-13">
                        <g id="Group-11" transform="translate(867.000000, 0.000000)">
                            <g id="social" transform="translate(3.000000, 0.000000)">
                                <g id="twitter" transform="translate(50.000000, 1.000000)">
                                    <path d="M26.9163161,6.23044606 C26.9353591,6.50387051 26.9353591,6.77735507 26.9353591,7.05077951 C26.9353591,15.3905857 20.7488311,25 9.44165798,25 C5.95812874,25 2.72210048,23.9647987 0,22.1680009 C0.49494334,22.2265575 0.970785042,22.2460964 1.48477142,22.2460964 C4.35909906,22.2460964 7.00508596,21.2500331 9.11804343,19.5508096 C6.414986,19.4921929 4.14974277,17.675796 3.36927097,15.175778 C3.75001465,15.2343346 4.13069973,15.2734124 4.53048645,15.2734124 C5.08250032,15.2734124 5.63457279,15.1952568 6.14850058,15.0586047 C3.33124348,14.4726179 1.21822741,11.9335821 1.21822741,8.86717632 L1.21822741,8.78908082 C2.03672671,9.2578342 2.98858589,9.55079755 3.99739843,9.58981524 C2.34129821,8.45697954 1.2563135,6.52340941 1.2563135,4.33589363 C1.2563135,3.16404024 1.56082641,2.08982125 2.09385584,1.15231449 C5.12052781,4.98043705 9.6700573,7.48039496 14.7715421,7.75387952 C14.6763855,7.28512614 14.6192563,6.79689398 14.6192563,6.30860169 C14.6192563,2.83199908 17.3603998,0 20.7677569,0 C22.5380568,0 24.1370279,0.76171673 25.2601573,1.99218684 C26.6497135,1.7187624 27.9821991,1.1913923 29.1624577,0.468753382 C28.7055418,1.93363024 27.7347568,3.16410036 26.4594002,3.94529587 C27.6967293,3.80864377 28.8959722,3.45700359 30,2.96877142 C29.1625749,4.21872032 28.115559,5.33195699 26.9163161,6.23044606 Z" id="Path"></path>
                                </g>
                            </g>
                        </g>
                    </g>
                </g>
            </g>
        </g>
    </g>
</svg>