<?xml version="1.0" encoding="UTF-8"?>
<svg width="29px" height="23px" viewBox="0 0 29 23" version="1.1" xmlns="http://www.w3.org/2000/svg" xmlns:xlink="http://www.w3.org/1999/xlink">
    <!-- Generator: Sketch 58 (84663) - https://sketch.com -->
    <title>medium</title>
    <desc>Created with Sketch.</desc>
    <g id="Page-1" stroke="none" stroke-width="1" fill="none" fill-rule="evenodd">
        <g id="home" transform="translate(-1131.000000, -2075.000000)" fill="#FFFFFF">
            <g id="foot" transform="translate(0.000000, 2031.000000)">
                <g id="medium" transform="translate(1131.000000, 44.000000)">
                    <path d="M3.4152,4.6644 C3.4512,4.3104 3.3156,3.9612 3.0516,3.7236 L0.3636,0.4836 L0.3636,-4.4408921e-16 L8.7132,-4.4408921e-16 L15.1668,14.154 L20.8404,-4.4408921e-16 L28.8,-4.4408921e-16 L28.8,0.4836 L26.5008,2.688 C26.3028,2.8392 26.2044,3.0876 26.2452,3.3336 L26.2452,19.5312 C26.2044,19.776 26.3028,20.0244 26.5008,20.1756 L28.746,22.38 L28.746,22.8636 L17.4516,22.8636 L17.4516,22.38 L19.7784,20.1216 C20.0064,19.8936 20.0064,19.8264 20.0064,19.4772 L20.0064,6.3852 L13.5396,22.8108 L12.666,22.8108 L5.136,6.3852 L5.136,17.394 C5.0736,17.856 5.2272,18.3228 5.5524,18.6564 L8.5776,22.326 L8.5776,22.8108 L-6.21724894e-15,22.8108 L-6.21724894e-15,22.326 L3.0252,18.6564 C3.3492,18.3216 3.4932,17.8524 3.4152,17.394 L3.4152,4.6644 L3.4152,4.6644 Z" id="Path"></path>
                </g>
            </g>
        </g>
    </g>
</svg>